<svg xmlns="http://www.w3.org/2000/svg" fill="none" viewBox="0 0 64 64" height="64" width="64">
<path fill="url(#paint0_linear_2323_10325)" d="M53.481 12.3198C53.4591 12.1827 53.3918 12.057 53.2899 11.9627C53.188 11.8684 53.0574 11.8111 52.919 11.7998C52.687 11.7778 48.13 11.7108 48.13 11.7108C48.13 11.7108 44.322 8.01081 43.945 7.63481C43.569 7.25781 42.835 7.37181 42.547 7.45481C42.542 7.45481 41.83 7.67581 40.633 8.04781C40.431 7.39781 40.137 6.59781 39.714 5.79781C38.357 3.20781 36.37 1.83981 33.971 1.83481H33.961C33.795 1.83481 33.631 1.84981 33.46 1.86481C33.387 1.78281 33.32 1.69481 33.243 1.61781C32.196 0.497814 30.853 -0.0441865 29.25 0.00281352C26.149 0.0898135 23.063 2.32981 20.56 6.30881C18.795 9.10481 17.459 12.6248 17.077 15.3438C13.517 16.4478 11.024 17.2168 10.972 17.2328C9.177 17.7948 9.12 17.8518 8.882 19.5448C8.702 20.8248 4 57.1828 4 57.1828L43.409 63.9998L60.489 59.7528C60.494 59.7578 53.523 12.6448 53.481 12.3198ZM38.656 8.66181C37.748 8.93981 36.716 9.25981 35.596 9.61181C35.576 8.04181 35.385 5.85381 34.652 3.97081C37.01 4.40981 38.166 7.07281 38.656 8.66181ZM33.537 10.2458C31.473 10.8858 29.218 11.5818 26.957 12.2838C27.593 9.84781 28.8 7.42381 30.281 5.83881C30.833 5.25081 31.602 4.58981 32.516 4.21281C33.372 5.99881 33.558 8.53281 33.537 10.2458ZM29.317 2.06181C30.044 2.04581 30.657 2.20581 31.179 2.55181C30.343 2.98481 29.533 3.60981 28.769 4.42481C26.798 6.53481 25.291 9.81781 24.687 12.9808C22.809 13.5638 20.972 14.1308 19.285 14.6528C20.353 9.67781 24.528 2.19981 29.317 2.06181Z"></path>
<path fill="white" d="M33.9458 20.5804L31.9648 28.0004C31.9648 28.0004 29.7508 26.9944 27.1298 27.1604C23.2848 27.4024 23.2438 29.8274 23.2798 30.4364C23.4918 33.7544 32.2228 34.4824 32.7128 42.2534C33.0998 48.3684 29.4668 52.5534 24.2398 52.8834C17.9648 53.2814 14.5078 49.5764 14.5078 49.5764L15.8388 43.9154C15.8388 43.9154 19.3168 46.5424 22.1038 46.3614C23.9198 46.2474 24.5698 44.7664 24.5078 43.7194C24.2348 39.3894 17.1238 39.6424 16.6748 32.5314C16.2978 26.5464 20.2298 20.4774 28.9048 19.9314C32.2328 19.7294 33.9458 20.5814 33.9458 20.5814V20.5804Z"></path>
<path fill-opacity="0.18" fill="url(#paint1_linear_2323_10325)" d="M52.9201 11.7986C52.6871 11.7786 48.1301 11.7116 48.1301 11.7116C48.1301 11.7116 44.3221 8.01158 43.9461 7.63458C43.799 7.49937 43.6126 7.4146 43.4141 7.39258V63.9996L60.4891 59.7526C60.4891 59.7526 53.5231 12.6406 53.4771 12.3206C53.4351 12.0006 53.1521 11.8206 52.9201 11.7986Z"></path>
<defs>
<linearGradient gradientUnits="userSpaceOnUse" y2="-3.27918" x2="8.863" y1="75.5748" x1="70.995" id="paint0_linear_2323_10325">
<stop stop-color="#B292FB"></stop>
<stop stop-color="#5D2DCE" offset="0.215"></stop>
<stop stop-color="#DC68C7" offset="0.846"></stop>
</linearGradient>
<linearGradient gradientUnits="userSpaceOnUse" y2="81.2196" x2="54.1321" y1="7.39258" x1="51.9521" id="paint1_linear_2323_10325">
<stop></stop>
<stop offset="1"></stop>
</linearGradient>
</defs>
</svg>
