<svg fill="none" height="64" width="64" xmlns="http://www.w3.org/2000/svg"><path clip-rule="evenodd" d="M41.023 6.657c.174-.014.346-.018.512-.014.53.012 1.82.126 2.863 1.168.143.142 1.06 1.035 1.973 1.924l.85.827.804.017 1.47.032.514.01.174.004a.65.65 0 0 1 .017 0c1.897 0 3.399 1.413 3.69 3.152.016.1.53 3.565 1.258 8.47l1.931 13.01c.79 5.314 1.579 10.62 2.174 14.6a2905.196 2905.196 0 0 0 .926 6.146 48.973 48.973 0 0 0 .056.357 3.22 3.22 0 0 1-2.387 3.742l-15.371 3.804a3.228 3.228 0 0 1-1.324.047L5.673 57.83a3.218 3.218 0 0 1-2.646-3.586l3.195.416-3.195-.416.67-5.128L5.181 37.75c1.088-8.339 2.187-16.774 2.254-17.332v-.004l.004-.033c.04-.333.099-.81.206-1.246a4.366 4.366 0 0 1 .972-1.9c.573-.642 1.232-.973 1.665-1.157.357-.151.76-.282 1.1-.389l.15-.055c.109-.038.24-.082.38-.128.287-.094.686-.22 1.172-.373.582-.182 1.303-.405 2.132-.659a27.401 27.401 0 0 1 3.183-7.302C20.905 3.158 24.513.148 28.824.005h.003c1.892-.061 3.698.46 5.19 1.664 3.103.308 5.509 2.278 7.006 4.988Z" fill-rule="evenodd" fill="#000"></path><path clip-rule="evenodd" d="M39.19 10.433a116.71 116.71 0 0 1 1.718-.51c.054-.027.124-.038.21-.052.061-.01.13-.021.209-.04v50.892L6.203 54.644S10.431 21.94 10.71 20.78c.185-1.531.232-1.578 1.858-2.088.046-.046 2.277-.742 5.482-1.716.325-2.46 1.534-5.614 3.113-8.12 2.23-3.571 5.018-5.566 7.805-5.659 1.44-.046 2.648.418 3.578 1.438.023.047.058.081.093.116.034.035.07.07.092.116.186-.046.326-.046.465-.046 2.137 0 3.95 1.252 5.157 3.572.372.742.65 1.438.836 2.041Zm-9.454 2.927c1.043-.323 2.068-.64 3.042-.932.046-1.53-.14-3.804-.93-5.474-.789.371-1.486.974-1.997 1.484-1.3 1.439-2.416 3.619-2.973 5.8.95-.288 1.911-.585 2.858-.878Zm.951-7.89c-.464-.28-1.022-.418-1.672-.418-4.321.139-8.084 6.866-9.06 11.273a2260.2 2260.2 0 0 0 4.878-1.484c.558-2.83 1.905-5.8 3.67-7.702.698-.696 1.441-1.299 2.184-1.67Zm-4.232 28.062c-1.536-.982-2.803-1.793-2.876-2.964-.047-.51 0-2.691 3.438-2.923 2.37-.186 4.367.742 4.367.742l1.766-6.68s-1.534-.743-4.553-.557c-7.806.51-11.337 5.938-10.965 11.273.235 3.593 2.357 5.097 4.216 6.413 1.453 1.03 2.744 1.944 2.846 3.654.047.928-.557 2.274-2.184 2.366-2.508.186-5.621-2.18-5.621-2.18l-1.208 5.103s3.113 3.34 8.78 2.97c4.693-.28 7.945-4.037 7.62-9.558-.281-4.24-3.27-6.152-5.626-7.66ZM33.8 6.815c.65 1.67.836 3.665.836 5.056a79.405 79.405 0 0 1 2.788-.835c-.465-1.438-1.487-3.804-3.624-4.221ZM57.076 56.917l-14.588 3.62V10.385c.929.928 3.438 3.34 3.438 3.34s4.088.093 4.32.093c.233 0 .465.186.512.464.046.278 6.318 42.635 6.318 42.635Z" fill-rule="evenodd" fill="#FF0"></path></svg>