<svg xmlns="http://www.w3.org/2000/svg" fill="none" viewBox="0 0 18 18" height="18" width="18">
<path stroke-width="0.8" stroke="#F7F7EE" d="M10.877 2.40039C13.3047 2.40039 15.3387 4.56824 15.3389 7.30566C15.3389 7.60318 15.3173 7.89678 15.2695 8.18164L15.2168 8.49121L15.5059 8.61523C16.7368 9.14488 17.6014 10.488 17.5996 11.9834L17.5957 12.1719C17.5061 14.108 16.042 15.5995 14.3232 15.5996H3.67676C1.90253 15.5995 0.400391 14.0123 0.400391 11.9834C0.400444 10.4117 1.32694 9.04377 2.63281 8.55957L2.88477 8.46582L2.89355 8.19727C2.94564 6.51878 4.20354 5.22949 5.6748 5.22949C5.92721 5.2295 6.17091 5.26497 6.40527 5.33594L6.74121 5.4375L6.88574 5.11816C7.64401 3.44435 9.19088 2.40053 10.877 2.40039Z"></path>
<path stroke-width="0.8" stroke="#F7F7EE" d="M9 6.5V12M9 12L6.5 9.5M9 12L11.5 9.5"></path>
</svg>
