<svg xmlns="http://www.w3.org/2000/svg" fill="none" viewBox="0 0 18 18" height="18" width="18">
<path fill="white" d="M0 9C0 8.07791 0.747594 7.33021 1.66992 7.33008L1.82031 7.33691C2.56144 7.40298 3.16284 7.95311 3.30664 8.66895H4.46289C4.69059 8.66351 4.91208 8.56907 5.08105 8.43359C5.08105 8.43359 7.17165 6.22546 7.19238 6.20312C7.20053 6.19458 7.20948 6.18531 7.19238 6.20312C7.49087 5.91527 7.96065 5.67004 8.4082 5.66992H10.0605C10.1972 5.28102 10.5638 5.00008 11 5C11.5519 5 11.9999 5.44766 12 6C12 6.55216 11.552 7 11 7C10.5639 6.99992 10.1972 6.71919 10.0605 6.33008C9.85898 6.33048 9.31079 6.33105 8.38867 6.33105C8.16105 6.3364 7.93973 6.43092 7.77051 6.56641L5.78027 8.66895H16V7.8457L18 9L16 10.1553V9.33008H8.2793L10.2695 11.4326C10.4387 11.5683 10.6608 11.6636 10.8887 11.6689C12.0646 11.6689 12.4888 11.6699 12.5 11.6699V11H14.5V13H12.5V12.3291L10.9082 12.3301C10.4607 12.33 9.99188 12.0845 9.69336 11.7969C9.6869 11.7897 7.61343 9.59957 7.58203 9.56641C7.41319 9.43069 7.19121 9.33587 6.96387 9.33008H3.30762C3.15428 10.0944 2.47908 10.6699 1.66992 10.6699C1.66992 10.2794 1.66992 10.0604 1.66992 9.66992C1.99279 9.66992 2.26463 9.43978 2.32617 9.13281L2.35254 8.99902L2.32617 8.86621C2.2648 8.56032 1.99319 8.33008 1.66992 8.33008C1.29978 8.33021 1 8.63029 1 9C1.00004 9.37009 1.29995 9.66979 1.66992 9.66992C1.66992 10.0033 1.66992 10.3366 1.66992 10.6699C0.80532 10.6698 0.0944086 10.0129 0.00878906 9.1709L0 9Z"></path>
</svg>
