<svg xmlns="http://www.w3.org/2000/svg" fill="none" viewBox="0 0 18 18" height="18" width="18">
<rect stroke-width="0.8" stroke="#F7F7EE" height="13.2" width="13.2" y="2.4" x="2.4"></rect>
<rect stroke-width="0.8" stroke="#F7F7EE" height="3.2" width="3.2" y="7.4" x="7.4"></rect>
<path stroke-width="0.8" stroke="#F7F7EE" d="M11.334 4.40039L13.5996 6.66602V11.334L11.334 13.5996H6.66602L4.40039 11.334V6.66602L6.66602 4.40039H11.334Z"></path>
<path stroke-width="0.8" stroke="#F7F7EE" d="M9 0V2.5"></path>
<path stroke-width="0.8" stroke="#F7F7EE" d="M9 16L9 18"></path>
<path stroke-width="0.8" stroke="#F7F7EE" d="M16 9L18 9"></path>
<path stroke-width="0.8" stroke="#F7F7EE" d="M0 9L2 9"></path>
<path stroke-width="0.8" stroke="#F7F7EE" d="M7 0V2.5"></path>
<path stroke-width="0.8" stroke="#F7F7EE" d="M7 16L7 18"></path>
<path stroke-width="0.8" stroke="#F7F7EE" d="M16 11L18 11"></path>
<path stroke-width="0.8" stroke="#F7F7EE" d="M0 11L2 11"></path>
<path stroke-width="0.8" stroke="#F7F7EE" d="M5 0V2"></path>
<path stroke-width="0.8" stroke="#F7F7EE" d="M5 16L5 18"></path>
<path stroke-width="0.8" stroke="#F7F7EE" d="M16 13L18 13"></path>
<path stroke-width="0.8" stroke="#F7F7EE" d="M0 13L2 13"></path>
<path stroke-width="0.8" stroke="#F7F7EE" d="M11 0V2.5"></path>
<path stroke-width="0.8" stroke="#F7F7EE" d="M11 16L11 18"></path>
<path stroke-width="0.8" stroke="#F7F7EE" d="M16 7L18 7"></path>
<path stroke-width="0.8" stroke="#F7F7EE" d="M0 7L2 7"></path>
<path stroke-width="0.8" stroke="#F7F7EE" d="M13 0V2.5"></path>
<path stroke-width="0.8" stroke="#F7F7EE" d="M13 16L13 18"></path>
<path stroke-width="0.8" stroke="#F7F7EE" d="M16 5L18 5"></path>
<path stroke-width="0.8" stroke="#F7F7EE" d="M0 5L2 5"></path>
</svg>
