<svg xmlns="http://www.w3.org/2000/svg" fill="none" viewBox="0 0 64 64" height="64" width="64">
<path style="" fill="url(#paint0_radial_2024_28226)" d="M53.6215 12.3202C53.5749 11.9951 53.2955 11.8197 53.0574 11.7991C52.8246 11.7784 48.2552 11.7113 48.2552 11.7113C48.2552 11.7113 44.4362 8.01144 44.0584 7.63474C43.6806 7.25804 42.9458 7.37156 42.656 7.45413C42.6508 7.45413 41.9367 7.67602 40.7362 8.04756C40.5343 7.39737 40.2394 6.59753 39.815 5.79769C38.454 3.20725 36.4617 1.83979 34.0554 1.83463C34.0503 1.83463 34.0503 1.83463 34.0451 1.83463C33.8795 1.83463 33.7139 1.85012 33.5431 1.8656C33.4707 1.78303 33.4034 1.69531 33.3258 1.6179C32.2753 0.498132 30.9298 -0.0436916 29.3205 0.0027505C26.2104 0.0904745 23.1158 2.33002 20.606 6.30856C18.8363 9.10541 17.496 12.6247 17.113 15.3441C13.5424 16.4484 11.0429 17.2173 10.9912 17.2328C9.19036 17.7952 9.13343 17.852 8.89539 19.5446C8.71427 20.8243 4 57.1833 4 57.1833L43.5202 64L60.6489 59.7531C60.6541 59.7583 53.6629 12.6453 53.6215 12.3202ZM38.7542 8.66163C37.8434 8.94028 36.8085 9.26021 35.6855 9.61111C35.6648 8.0424 35.4733 5.85446 34.7385 3.97097C37.1034 4.40959 38.2626 7.07227 38.7542 8.66163ZM33.6208 10.2458C31.5508 10.8857 29.2894 11.5823 27.0228 12.2841C27.6593 9.84848 28.8703 7.42317 30.3554 5.83898C30.9091 5.25071 31.6802 4.5902 32.5961 4.2135C33.4552 5.99894 33.6415 8.53262 33.6208 10.2458ZM29.3877 2.06168C30.1174 2.0462 30.7332 2.20617 31.2559 2.5519C30.4175 2.98536 29.6051 3.60976 28.8392 4.42507C26.8624 6.53561 25.3514 9.81752 24.7459 12.9807C22.8623 13.5638 21.02 14.1315 19.3279 14.6527C20.399 9.67819 24.5855 2.20101 29.3877 2.06168Z"></path>
<path style="fill:white;fill-opacity:0.1;" fill-opacity="0.1" fill="white" d="M53.6215 12.3202C53.5749 11.9951 53.2955 11.8197 53.0574 11.7991C52.8246 11.7784 48.2552 11.7113 48.2552 11.7113C48.2552 11.7113 44.4362 8.01144 44.0584 7.63474C43.6806 7.25804 42.9458 7.37156 42.656 7.45413C42.6508 7.45413 41.9367 7.67602 40.7362 8.04756C40.5343 7.39737 40.2394 6.59753 39.815 5.79769C38.454 3.20725 36.4617 1.83979 34.0554 1.83463C34.0503 1.83463 34.0503 1.83463 34.0451 1.83463C33.8795 1.83463 33.7139 1.85012 33.5431 1.8656C33.4707 1.78303 33.4034 1.69531 33.3258 1.6179C32.2753 0.498132 30.9298 -0.0436916 29.3205 0.0027505C26.2104 0.0904745 23.1158 2.33002 20.606 6.30856C18.8363 9.10541 17.496 12.6247 17.113 15.3441C13.5424 16.4484 11.0429 17.2173 10.9912 17.2328C9.19036 17.7952 9.13343 17.852 8.89539 19.5446C8.71427 20.8243 4 57.1833 4 57.1833L43.5202 64L60.6489 59.7531C60.6541 59.7583 53.6629 12.6453 53.6215 12.3202ZM38.7542 8.66163C37.8434 8.94028 36.8085 9.26021 35.6855 9.61111C35.6648 8.0424 35.4733 5.85446 34.7385 3.97097C37.1034 4.40959 38.2626 7.07227 38.7542 8.66163ZM33.6208 10.2458C31.5508 10.8857 29.2894 11.5823 27.0228 12.2841C27.6593 9.84848 28.8703 7.42317 30.3554 5.83898C30.9091 5.25071 31.6802 4.5902 32.5961 4.2135C33.4552 5.99894 33.6415 8.53262 33.6208 10.2458ZM29.3877 2.06168C30.1174 2.0462 30.7332 2.20617 31.2559 2.5519C30.4175 2.98536 29.6051 3.60976 28.8392 4.42507C26.8624 6.53561 25.3514 9.81752 24.7459 12.9807C22.8623 13.5638 21.02 14.1315 19.3279 14.6527C20.399 9.67819 24.5855 2.20101 29.3877 2.06168Z"></path>
<path style="" fill="url(#paint1_radial_2024_28226)" d="M53.0477 11.7994C52.8148 11.7788 48.2454 11.7117 48.2454 11.7117C48.2454 11.7117 44.4264 8.01181 44.0486 7.63511C43.9089 7.49578 43.7174 7.42354 43.5156 7.39258V64.0003L60.6392 59.7535C60.6392 59.7535 53.6531 12.6405 53.6066 12.3206C53.5652 12.0007 53.2805 11.8201 53.0477 11.7994Z"></path>
<path style="fill:white;fill-opacity:0.4;" fill-opacity="0.4" fill="white" d="M53.0477 11.7994C52.8148 11.7788 48.2454 11.7117 48.2454 11.7117C48.2454 11.7117 44.4264 8.01181 44.0486 7.63511C43.9089 7.49578 43.7174 7.42354 43.5156 7.39258V64.0003L60.6392 59.7535C60.6392 59.7535 53.6531 12.6405 53.6066 12.3206C53.5652 12.0007 53.2805 11.8201 53.0477 11.7994Z"></path>
<path style="fill:white;fill-opacity:1;" fill="white" d="M34.0327 20.5814L32.0455 28.0018C32.0455 28.0018 29.8255 26.9955 27.1967 27.1607C23.3415 27.4032 23.3001 29.8285 23.3363 30.4374C23.5485 33.7554 32.3043 34.483 32.7959 42.2544C33.184 48.3692 29.5409 52.5542 24.2988 52.8844C18.0062 53.2818 14.5391 49.5767 14.5391 49.5767L15.8742 43.9159C15.8742 43.9159 19.362 46.5425 22.1564 46.3619C23.978 46.2484 24.63 44.7674 24.5679 43.7199C24.2936 39.3904 17.1627 39.6433 16.7125 32.5325C16.3347 26.5466 20.278 20.4782 28.9769 19.9312C32.3146 19.7299 34.0327 20.5814 34.0327 20.5814Z"></path>
<defs>
<radialGradient gradientTransform="translate(-12.4636 -33.8989) rotate(59.8674) scale(145.642 131.382)" gradientUnits="userSpaceOnUse" r="1" cy="0" cx="0" id="paint0_radial_2024_28226">
<stop style="stop-color:#CEF141;stop-color:color(display-p3 0.8078 0.9451 0.2549);stop-opacity:1;" stop-color="#CEF141"></stop>
<stop style="stop-color:#79D7EC;stop-color:color(display-p3 0.4745 0.8431 0.9255);stop-opacity:1;" stop-color="#79D7EC" offset="0.68863"></stop>
<stop style="stop-color:#130FD7;stop-color:color(display-p3 0.0745 0.0588 0.8431);stop-opacity:1;" stop-color="#130FD7" offset="1"></stop>
</radialGradient>
<radialGradient gradientTransform="translate(52.1748 70.0711) rotate(-98.7059) scale(135.294 62.5422)" gradientUnits="userSpaceOnUse" r="1" cy="0" cx="0" id="paint1_radial_2024_28226">
<stop style="stop-color:#130FD7;stop-color:color(display-p3 0.0745 0.0588 0.8431);stop-opacity:1;" stop-color="#130FD7"></stop>
<stop style="stop-color:#21C9AB;stop-color:color(display-p3 0.1294 0.7882 0.6706);stop-opacity:1;" stop-color="#21C9AB" offset="0.428223"></stop>
<stop style="stop-color:#CEF141;stop-color:color(display-p3 0.8078 0.9451 0.2549);stop-opacity:1;" stop-color="#CEF141" offset="0.9154"></stop>
</radialGradient>
</defs>
</svg>
