<svg xmlns="http://www.w3.org/2000/svg" fill="none" viewBox="0 0 64 64" height="64" width="64">
<path style="fill:#FFA801;fill:color(display-p3 1.0000 0.6588 0.0039);fill-opacity:1;" fill="#FFA801" d="M53.4815 12.3202C53.4351 11.9951 53.1564 11.8197 52.919 11.7991C52.6868 11.7784 48.1303 11.7113 48.1303 11.7113C48.1303 11.7113 44.3221 8.01144 43.9454 7.63474C43.5687 7.25804 42.8359 7.37156 42.547 7.45413C42.5418 7.45413 41.8297 7.67602 40.6325 8.04756C40.4313 7.39737 40.1371 6.59753 39.714 5.79769C38.3568 3.20725 36.3702 1.83979 33.9706 1.83463C33.9655 1.83463 33.9655 1.83463 33.9603 1.83463C33.7952 1.83463 33.6301 1.85012 33.4598 1.8656C33.3875 1.78303 33.3205 1.69531 33.243 1.6179C32.1955 0.498132 30.8539 -0.0436916 29.249 0.0027505C26.1477 0.0904745 23.0619 2.33002 20.5592 6.30856C18.7944 9.10541 17.4579 12.6247 17.076 15.3441C13.5155 16.4484 11.0231 17.2173 10.9715 17.2328C9.17571 17.7952 9.11895 17.852 8.88158 19.5446C8.70097 20.8243 4 57.1833 4 57.1833L43.4087 64L60.4891 59.7531C60.4943 59.7583 53.5228 12.6453 53.4815 12.3202ZM38.6561 8.66163C37.7479 8.94028 36.7159 9.26021 35.5961 9.61111C35.5755 8.0424 35.3845 5.85446 34.6518 3.97097C37.01 4.40959 38.1659 7.07227 38.6561 8.66163ZM33.5372 10.2458C31.4731 10.8857 29.2181 11.5823 26.9579 12.2841C27.5926 9.84848 28.8001 7.42317 30.2811 5.83898C30.8332 5.25071 31.6021 4.5902 32.5155 4.2135C33.3721 5.99894 33.5578 8.53262 33.5372 10.2458ZM29.3161 2.06168C30.0437 2.0462 30.6578 2.20617 31.179 2.5519C30.343 2.98536 29.5328 3.60976 28.7691 4.42507C26.7979 6.53561 25.2911 9.81752 24.6874 12.9807C22.8091 13.5638 20.972 14.1315 19.2846 14.6527C20.3528 9.67819 24.5274 2.20101 29.3161 2.06168Z"></path>
<path style="fill:white;fill-opacity:1;" fill="white" d="M33.9464 20.5814L31.9649 28.0018C31.9649 28.0018 29.7512 26.9955 27.1298 27.1607C23.2854 27.4032 23.2441 29.8285 23.2802 30.4374C23.4918 33.7554 32.2229 34.483 32.7131 42.2544C33.1001 48.3692 29.4673 52.5542 24.24 52.8844C17.9652 53.2818 14.5078 49.5767 14.5078 49.5767L15.8392 43.9159C15.8392 43.9159 19.3172 46.5425 22.1037 46.3619C23.9201 46.2484 24.5703 44.7674 24.5084 43.7199C24.2349 39.3904 17.1241 39.6433 16.6751 32.5325C16.2984 26.5466 20.2305 20.4782 28.9049 19.9312C32.2332 19.7299 33.9464 20.5814 33.9464 20.5814Z"></path>
<path style="fill:#C28102;fill:color(display-p3 0.7608 0.5059 0.0078);fill-opacity:1;" fill="#C28102" d="M52.9192 11.7984C52.687 11.7778 48.1305 11.7107 48.1305 11.7107C48.1305 11.7107 44.3223 8.01083 43.9456 7.63413C43.8062 7.49481 43.6153 7.42256 43.4141 7.3916V63.9994L60.4893 59.7525C60.4893 59.7525 53.523 12.6396 53.4765 12.3196C53.4352 11.9997 53.1514 11.8191 52.9192 11.7984Z"></path>
</svg>
