<svg xmlns="http://www.w3.org/2000/svg" fill="none" viewBox="0 0 16 16" height="16" width="16">
<path style="fill:black;fill-opacity:1;" fill="black" d="M2 8C2 4.68629 4.68629 2 8 2C11.3137 2 14 4.68629 14 8C14 11.3137 11.3137 14 8 14C4.68629 14 2 11.3137 2 8ZM3.73034 5.99874L5.35056 7.61895C5.67491 7.9433 5.85713 8.38321 5.85713 8.84191V9.2857C5.85713 9.75909 6.24089 10.1428 6.71427 10.1428C7.42436 10.1428 7.99999 10.7185 7.99999 11.4286V12.7143C10.0792 12.7143 11.8441 11.3682 12.4706 9.49998L11.4286 9.49998C11.3102 9.49998 11.2143 9.40404 11.2143 9.2857V8.85712C11.2143 8.26539 10.7346 7.7857 10.1429 7.7857L7.99998 7.78569C7.40663 7.78569 6.92855 7.29941 6.92855 6.7093C6.92855 6.37795 7.08194 6.062 7.34527 5.85872L7.74121 5.55309C7.92897 5.40815 8.03893 5.18436 8.03893 4.94716L8.03893 4.91223C8.03893 4.27208 8.55787 3.75314 9.19802 3.75314L9.24685 3.75314C9.41289 3.75314 9.56506 3.69378 9.6833 3.59512C9.16052 3.39522 8.59305 3.28571 8 3.28571C6.11188 3.28571 4.48301 4.39571 3.73034 5.99874Z" clip-rule="evenodd" fill-rule="evenodd"></path>
</svg>
