<svg xmlns="http://www.w3.org/2000/svg" fill="none" viewBox="0 0 24 24" height="24" width="24">
<path style="fill:black;fill-opacity:1;" fill="black" d="M5.24504 8.73714L8.02585 11.4284C8.51237 11.9149 8.7857 12.5748 8.7857 13.2629L8.7857 13.9286C8.7857 14.6386 9.36133 15.2143 10.0714 15.2143C11.1365 15.2143 12 16.0777 12 17.1428L12 19.5C15.1775 19.5 17.8934 17.524 18.9861 14.7339L17.1429 14.25C16.9653 14.25 16.8214 14.1061 16.8214 13.9285L16.8214 13.2857C16.8214 12.3981 16.1019 11.6785 15.2143 11.6785L12 11.6785C11.11 11.6785 10.3928 10.9491 10.3928 10.0639C10.3928 9.56692 10.6229 9.093 11.0179 8.78808L11.6118 8.32963C11.8934 8.11222 12.0584 7.77653 12.0584 7.42075L12.0584 7.36834C12.0584 6.40812 12.8368 5.6297 13.797 5.6297L13.8703 5.6297C14.0197 5.6297 14.3325 5.2765 14.5972 4.96188C13.7879 4.66315 12.913 4.5 12 4.5C9.0273 4.5 6.45855 6.22948 5.24504 8.73714ZM3.18285 10.1862C4.02207 6.08504 7.65076 3 12 3C16.9706 3 21 7.02944 21 12C21 14.3014 20.1362 16.401 18.7151 17.9924C18.122 18.6566 17.4318 19.2322 16.6668 19.697C15.3061 20.5239 13.7086 21 12 21C11.3787 21 10.7721 20.937 10.1862 20.8172C6.08504 19.9779 3 16.3492 3 12C3 11.3787 3.06296 10.7721 3.18285 10.1862Z" clip-rule="evenodd" fill-rule="evenodd"></path>
</svg>
